<svg xmlns="http://www.w3.org/2000/svg" width="19" height="25" viewBox="0 0 19 25">
  <g id="Group_3354" data-name="Group 3354" transform="translate(-781 -1482)">
    <g id="Group_3298" data-name="Group 3298" transform="translate(-23 1008)">
      <rect id="Rectangle_1973" data-name="Rectangle 1973" width="9" height="12" rx="3" transform="translate(804 474)" fill="#2193ff"/>
      <path id="Path_1431" data-name="Path 1431" d="M3208.529,2580.5h3.045" transform="translate(-2401.429 -2100.886)" fill="none" stroke="#fff" stroke-width="1"/>
      <rect id="Rectangle_1976" data-name="Rectangle 1976" width="9" height="12" rx="3" transform="translate(804 487)" fill="#80cfff"/>
      <path id="Path_1433" data-name="Path 1433" d="M3208.529,2580.5h3.045" transform="translate(-2401.531 -2087.4)" fill="none" stroke="#fff" stroke-width="1"/>
      <rect id="Rectangle_1973-2" data-name="Rectangle 1973" width="9" height="12" rx="3" transform="translate(814 474)" fill="#80cfff"/>
      <path id="Path_1432" data-name="Path 1432" d="M3208.529,2580.5h3.045" transform="translate(-2391.723 -2100.886)" fill="none" stroke="#fff" stroke-width="1"/>
      <path id="Path_2006" data-name="Path 2006" d="M3,0H6A3,3,0,0,1,9,3V9a3,3,0,0,1-3,3H3A3,3,0,0,1,0,9V3A3,3,0,0,1,3,0Z" transform="translate(814 487)" fill="#2193ff"/>
      <path id="Path_1434" data-name="Path 1434" d="M3208.529,2580.5h3.045" transform="translate(-2391.723 -2087.4)" fill="none" stroke="#fff" stroke-width="1"/>
    </g>
  </g>
</svg>
