<svg xmlns="http://www.w3.org/2000/svg" xmlns:xlink="http://www.w3.org/1999/xlink" width="21.916" height="25" viewBox="0 0 21.916 25">
  <defs>
    <clipPath id="clip-path">
      <rect id="Rectangle_2544" data-name="Rectangle 2544" width="21.916" height="25" fill="none"/>
    </clipPath>
  </defs>
  <g id="Group_3358" data-name="Group 3358" transform="translate(-1152 -1482)">
    <g id="Group_3302" data-name="Group 3302" transform="translate(1152 1482)">
      <g id="Group_3301" data-name="Group 3301" clip-path="url(#clip-path)">
        <path id="Path_2009" data-name="Path 2009" d="M5.075,0h15a1.84,1.84,0,0,1,1.84,1.84V23.16A1.84,1.84,0,0,1,20.076,25h-15a1.84,1.84,0,0,1-1.84-1.84V1.84A1.84,1.84,0,0,1,5.075,0" fill="#2193ff"/>
        <path id="Path_2010" data-name="Path 2010" d="M10.248,12.5v5.444c0,.235,0,.236-.227.236-.619,0-1.237,0-1.855,0-.152,0-.193-.049-.193-.2q0-5.481,0-10.961c0-.154.042-.207.2-.2q.938.01,1.872,0c.167,0,.206.055.206.213q-.009,2.732,0,5.466" fill="#fff"/>
        <path id="Path_2011" data-name="Path 2011" d="M15.914,9.093c-1.067,0-2.133,0-3.2,0-.163,0-.2-.056-.2-.2q.01-.937,0-1.873c0-.155.046-.2.2-.2q3.208.008,6.417,0c.162,0,.2.056.2.208q-.009.936,0,1.872c0,.158-.048.2-.2.2-1.072-.006-2.144,0-3.217,0" fill="#fff"/>
        <path id="Path_2012" data-name="Path 2012" d="M15.933,15.9c1.067,0,2.133,0,3.2,0,.157,0,.2.046.2.2q-.01.944,0,1.889c0,.137-.038.188-.182.188q-3.225,0-6.451,0c-.142,0-.185-.048-.184-.187q.009-.945,0-1.889c0-.153.042-.2.2-.2,1.073.007,2.144,0,3.216,0" fill="#fff"/>
        <path id="Path_2013" data-name="Path 2013" d="M15.923,13.63H12.741c-.222,0-.222,0-.222-.227,0-.611,0-1.225,0-1.838,0-.157.049-.2.2-.2q3.207.006,6.415,0c.142,0,.2.034.2.189q-.01.943,0,1.889c0,.15-.046.192-.2.191-1.068-.005-2.142,0-3.214,0" fill="#fff"/>
        <path id="Path_2014" data-name="Path 2014" d="M7.462,12.38,4.871,10.158a.16.16,0,0,0-.225.018.162.162,0,0,0-.038.1V11.5a.159.159,0,0,1-.159.159H.16a.16.16,0,0,0-.16.159v1.359a.159.159,0,0,0,.159.159H4.448a.159.159,0,0,1,.158.159h0v1.222a.159.159,0,0,0,.263.12L7.46,12.617a.158.158,0,0,0,.016-.223l-.014-.014" fill="#6cb9ff"/>
      </g>
    </g>
  </g>
</svg>
