<svg xmlns="http://www.w3.org/2000/svg" xmlns:xlink="http://www.w3.org/1999/xlink" width="22.75" height="25" viewBox="0 0 22.75 25">
  <defs>
    <clipPath id="clip-path">
      <rect id="Rectangle_2545" data-name="Rectangle 2545" width="22.75" height="25" fill="none"/>
    </clipPath>
  </defs>
  <g id="Group_3359" data-name="Group 3359" transform="translate(-1346 -1482)">
    <g id="Group_3304" data-name="Group 3304" transform="translate(1346 1482)">
      <g id="Group_3303" data-name="Group 3303" clip-path="url(#clip-path)">
        <path id="Path_2015" data-name="Path 2015" d="M22.224,16.234,21.046,15.2a1.368,1.368,0,0,1-.459-1.234,9.5,9.5,0,0,0,0-2.935A1.362,1.362,0,0,1,21.046,9.8l1.176-1.031a1.546,1.546,0,0,0,.318-1.934l-.679-1.169a1.543,1.543,0,0,0-1.83-.686l-1.471.5a1.373,1.373,0,0,1-1.308-.221A9.246,9.246,0,0,0,14.727,3.8a1.409,1.409,0,0,1-.864-1.047l-.3-1.507A1.543,1.543,0,0,0,12.051,0H10.7A1.541,1.541,0,0,0,9.185,1.241l-.3,1.507A1.407,1.407,0,0,1,8.02,3.8,9.21,9.21,0,0,0,5.5,5.256a1.376,1.376,0,0,1-1.308.222l-1.473-.5a1.54,1.54,0,0,0-1.829.686L.209,6.834A1.543,1.543,0,0,0,.525,8.768L1.7,9.8a1.366,1.366,0,0,1,.46,1.233,9.435,9.435,0,0,0,0,2.934A1.368,1.368,0,0,1,1.7,15.2L.525,16.234a1.542,1.542,0,0,0-.318,1.932l.682,1.177a1.542,1.542,0,0,0,1.83.687l1.481-.5a1.373,1.373,0,0,1,1.3.22A9.353,9.353,0,0,0,8.018,21.2a1.411,1.411,0,0,1,.862,1.045l.305,1.51A1.545,1.545,0,0,0,10.7,25h1.357a1.542,1.542,0,0,0,1.511-1.241l.3-1.51A1.409,1.409,0,0,1,14.73,21.2a9.344,9.344,0,0,0,2.519-1.46,1.368,1.368,0,0,1,1.3-.221l1.48.5a1.542,1.542,0,0,0,1.829-.689l.682-1.175a1.544,1.544,0,0,0-.32-1.929" fill="#037fff"/>
        <path id="Path_2016" data-name="Path 2016" d="M11.374,18.279A5.778,5.778,0,1,1,17.153,12.5a5.779,5.779,0,0,1-5.779,5.777m0-10.821A5.042,5.042,0,1,0,16.418,12.5a5.044,5.044,0,0,0-5.044-5.044Z" fill="#fff"/>
        <path id="Path_2017" data-name="Path 2017" d="M12.645,14.284l-1.632-1.632V10.078h.735v2.27l1.417,1.417Z" fill="#fff"/>
      </g>
    </g>
  </g>
</svg>
