<svg id="Group_3346" data-name="Group 3346" xmlns="http://www.w3.org/2000/svg" xmlns:xlink="http://www.w3.org/1999/xlink" width="116" height="116" viewBox="0 0 116 116">
  <defs>
    <clipPath id="clip-path">
      <rect id="Rectangle_2527" data-name="Rectangle 2527" width="116" height="116" fill="none"/>
    </clipPath>
    <clipPath id="clip-path-3">
      <path id="Path_1989" data-name="Path 1989" d="M82.1,53.708a9.04,9.04,0,1,1,6,2.277,9.035,9.035,0,0,1-6-2.277M47.543,75.1a4.631,4.631,0,0,0,1.2,5.257l4.882,4.332L72.158,62.032A1.914,1.914,0,1,1,75.169,64.4c-.016.02-.032.04-.05.06a1.359,1.359,0,0,1-.1.114l-20.29,21.1L59.613,90a4.632,4.632,0,0,0,5.362.563c28.359-16.15,39.105-35.505,43.061-49.484a55.986,55.986,0,0,0-16.478-14.62C78.149,32.045,60.211,45.017,47.543,75.1" fill="none"/>
    </clipPath>
    <radialGradient id="radial-gradient" cx="0.526" cy="0.503" r="0.482" gradientTransform="matrix(0.996, 0, 0, -0.4, -0.001, 1.598)" gradientUnits="objectBoundingBox">
      <stop offset="0" stop-color="#6950ff"/>
      <stop offset="0.286" stop-color="#5f45ff"/>
      <stop offset="0.784" stop-color="#4728ff"/>
      <stop offset="1" stop-color="#3b1aff"/>
    </radialGradient>
    <clipPath id="clip-path-5">
      <rect id="Rectangle_2525" data-name="Rectangle 2525" width="7.998" height="15.164" transform="translate(85.732 39.369)" fill="none"/>
    </clipPath>
  </defs>
  <g id="Group_3288" data-name="Group 3288" clip-path="url(#clip-path)">
    <g id="Group_3280" data-name="Group 3280">
      <g id="Group_3279" data-name="Group 3279" clip-path="url(#clip-path)">
        <path id="Path_1982" data-name="Path 1982" d="M116,58c0,7.291-9.589,12.62-12.218,18.962-2.725,6.572.183,17.1-4.77,22.05s-15.478,2.045-22.05,4.77C70.622,106.411,65.29,116,58,116s-12.621-9.589-18.961-12.218c-6.573-2.725-17.1.183-22.051-4.77s-2.045-15.478-4.77-22.05C9.589,70.622,0,65.291,0,58S9.589,45.379,12.218,39.039c2.726-6.572-.183-17.1,4.77-22.051s15.479-2.045,22.051-4.77C45.378,9.589,50.71,0,58,0S70.62,9.589,76.962,12.218c6.572,2.726,17.1-.183,22.05,4.77s2.045,15.479,4.77,22.051C106.411,45.379,116,50.71,116,58" fill="#e6efff"/>
        <path id="Path_1983" data-name="Path 1983" d="M35.455,42.847a1.779,1.779,0,0,1-.21-2.511c1.493-1.954,2.255-2.919,3.809-4.822,2.766-3.389,7.4-4.149,10.172-1.685,2.737,2.433,2.817,6.943.2,10.15-.561.687-.839,1.033-1.392,1.727l3.588,2.854a1.018,1.018,0,0,1,.158,1.426c-.753.958-1.125,1.44-1.861,2.412a1.018,1.018,0,0,1-1.42.209l-13.043-9.76m10.359-5.031a2.22,2.22,0,0,0-3.157.639c-.589.721-.881,1.083-1.461,1.812l3.2,2.544c.57-.71.858-1.063,1.437-1.765a2.245,2.245,0,0,0-.017-3.23" fill="#132149"/>
        <path id="Path_1984" data-name="Path 1984" d="M66.071,32.99c-3.451-.841-5.2-1.223-8.728-1.91l4.869,4.7a1.488,1.488,0,0,1,.034,2.094c-.58.612-.869.919-1.441,1.537a1.487,1.487,0,0,1-2.091.1L47,28.878a1.774,1.774,0,0,1,.026-2.517c1.68-1.809,2.534-2.7,4.27-4.453,3.222-3.253,7.524-3.438,9.841-.946a5.827,5.827,0,0,1,1.031,6.177c2.555.494,3.823.762,6.334,1.339A1.475,1.475,0,0,1,69.156,31c-.68.639-1.018.961-1.69,1.61a1.5,1.5,0,0,1-1.4.38M55.6,29.429c.615-.63.925-.943,1.547-1.566a1.928,1.928,0,1,0-2.712-2.683c-.632.639-.946.96-1.571,1.607L55.6,29.429" fill="#132149"/>
        <path id="Path_1985" data-name="Path 1985" d="M65.076,21.882c-3.828-4.221-3.007-10.862,2.155-15s11.837-3.5,15.121,1.16c3.257,4.618,1.988,10.721-2.645,14.432s-10.834,3.593-14.631-.594M77.945,11.208c-1.761-2.344-5.145-2.645-7.717-.584s-3.015,5.426-1.111,7.656a5.379,5.379,0,0,0,7.589.43,5.382,5.382,0,0,0,1.239-7.5" fill="#132149"/>
        <path id="Path_1986" data-name="Path 1986" d="M52.2.794A.844.844,0,0,0,51.128.032l-12.449,3.5a.845.845,0,0,0-.262,1.5l5.9,4.2L33.04,24.375,15.505,30.548.132,55.58a.892.892,0,1,0,1.521.933L16.694,32.021l17.452-6.144L45.769,10.26l5.877,4.181a.844.844,0,0,0,1.333-.739Z" fill="#ff3e5a"/>
        <path id="Path_1987" data-name="Path 1987" d="M20.96,44.669l3.972,7.262L32.193,55.9l-7.261,3.972L20.96,67.136l-3.972-7.262L9.727,55.9l7.261-3.971Z" fill="#fff"/>
        <path id="Path_1988" data-name="Path 1988" d="M10.633,69.231,12.912,73.4l4.168,2.279-4.168,2.279-2.279,4.168L8.354,77.957,4.186,75.678,8.354,73.4Z" fill="#2e60ff"/>
      </g>
    </g>
    <g id="Group_3282" data-name="Group 3282">
      <g id="Group_3281" data-name="Group 3281" clip-path="url(#clip-path-3)">
        <rect id="Rectangle_2524" data-name="Rectangle 2524" width="89.318" height="88.955" transform="matrix(0.658, -0.753, 0.753, 0.658, 14.527, 63.357)" fill="url(#radial-gradient)"/>
      </g>
    </g>
    <g id="Group_3287" data-name="Group 3287">
      <g id="Group_3286" data-name="Group 3286" clip-path="url(#clip-path)">
        <path id="Path_1990" data-name="Path 1990" d="M108.036,41.079a55.981,55.981,0,0,0-16.477-14.62c10.67-4.447,18.472-4.221,18.472-4.221s1.15,7.72-1.995,18.841" fill="#ff3e5a"/>
        <path id="Path_1991" data-name="Path 1991" d="M43.978,71.989a8.409,8.409,0,0,0-4.989,1.575l-7.923,5.675a.744.744,0,0,1-1.1-.933l7.244-14.724a8.977,8.977,0,0,1,7.551-5l6.169-.344a125.92,125.92,0,0,0-6.95,13.748" fill="#ff3e5a"/>
        <path id="Path_1992" data-name="Path 1992" d="M77.636,99.456,63.877,108.4a.745.745,0,0,1-1.057-.984l4.691-8.543a8.409,8.409,0,0,0,.97-5.138,126.124,126.124,0,0,0,12.828-8.539l.392,6.17a8.976,8.976,0,0,1-4.065,8.091" fill="#ff3e5a"/>
        <path id="Path_1993" data-name="Path 1993" d="M49.568,103.3,26.819,116l9.9-24.1a10.456,10.456,0,0,1,6.863-6.1l2.324-.65a2.749,2.749,0,0,1,2.561.592l2.48,2.2L41.909,98.989,51.8,88.7l2.481,2.2a2.748,2.748,0,0,1,.893,2.476l-.37,2.384a10.452,10.452,0,0,1-5.238,7.543" fill="#ffb000"/>
        <path id="Path_1994" data-name="Path 1994" d="M94.439,42.793a7.564,7.564,0,0,1-.709,9.219,7.3,7.3,0,0,1-1.478,1.276c-.094.062-.194.128-.292.182a7.476,7.476,0,0,1-1.463.673,7.567,7.567,0,0,1-8.736-3.035,7.577,7.577,0,0,1,2.18-10.491,7.272,7.272,0,0,1,1.791-.859,7.409,7.409,0,0,1,3.118-.351,7.318,7.318,0,0,1,1.578.333,7.574,7.574,0,0,1,2.051,1.028,7.41,7.41,0,0,1,1.96,2.025" fill="#a1b7ff"/>
        <g id="Group_3285" data-name="Group 3285" opacity="0.2">
          <g id="Group_3284" data-name="Group 3284">
            <g id="Group_3283" data-name="Group 3283" clip-path="url(#clip-path-5)">
              <path id="Path_1995" data-name="Path 1995" d="M88.851,39.407,90.5,54.143a7.622,7.622,0,0,1-3.113.358L85.733,39.759a7.424,7.424,0,0,1,3.118-.352" fill="#fff"/>
              <path id="Path_1996" data-name="Path 1996" d="M92.48,40.768l1.251,11.245a7.369,7.369,0,0,1-1.479,1.276c-.093.061-.194.127-.292.182l-1.532-13.73a7.534,7.534,0,0,1,2.052,1.027" fill="#fff"/>
            </g>
          </g>
        </g>
        <path id="Path_1997" data-name="Path 1997" d="M83.987,50.126a.4.4,0,0,1-.554-.115,5.561,5.561,0,0,1-.188-5.813.4.4,0,0,1,.695.394,4.767,4.767,0,0,0,.162,4.98.4.4,0,0,1-.115.554" fill="#fff"/>
        <path id="Path_1998" data-name="Path 1998" d="M88.115,56.024a9.073,9.073,0,1,1,9.074-9.074,9.084,9.084,0,0,1-9.074,9.074m0-16.643a7.569,7.569,0,1,0,7.569,7.569,7.578,7.578,0,0,0-7.569-7.569" fill="#fff"/>
        <path id="Path_1999" data-name="Path 1999" d="M98.877,89.688l-5.031-.353a1.4,1.4,0,0,1-1.3-1.492l.352-5.031a1.4,1.4,0,0,1,1.492-1.3l5.031.352a1.4,1.4,0,0,1,1.3,1.493l-.353,5.03a1.4,1.4,0,0,1-1.492,1.3" fill="#037fff"/>
        <path id="Path_2000" data-name="Path 2000" d="M105.3,91.65l-5.032-.353a1.4,1.4,0,0,1-1.3-1.492l.352-5.031a1.4,1.4,0,0,1,1.492-1.3l5.031.352a1.4,1.4,0,0,1,1.3,1.493l-.353,5.03a1.4,1.4,0,0,1-1.491,1.3" fill="#3babff"/>
        <path id="Path_2001" data-name="Path 2001" d="M106.381,97.77l-5.031-.353a1.4,1.4,0,0,1-1.3-1.492l.352-5.031a1.4,1.4,0,0,1,1.492-1.3l5.031.352a1.4,1.4,0,0,1,1.3,1.493l-.353,5.03a1.4,1.4,0,0,1-1.492,1.3" fill="#69c6ff"/>
        <path id="Path_2002" data-name="Path 2002" d="M99.959,95.809l-5.031-.353a1.4,1.4,0,0,1-1.3-1.492l.352-5.031a1.4,1.4,0,0,1,1.492-1.3l5.031.352a1.4,1.4,0,0,1,1.3,1.493l-.353,5.03a1.4,1.4,0,0,1-1.492,1.3" fill="#71deff"/>
      </g>
    </g>
  </g>
</svg>
